# xmcd
#
# Track frame offsets: 
#        150
#        17216
#        29571
#        48815
#        67938
#        85595
#        98248
#        123746
#        124791
#        138758
#        174535
#        175252
#        188331
#        208181
#        226151
#
# Disc length: 3264 seconds
#
# Revision: 1
# Processed by: cddbd v1.5.2PL0 Copyright (c) Steve Scherf et al.
# Submitted via: ExactAudioCopy v1.0b4
#
DISCID=c10cbe0f
DTITLE=David Gogo - Skeleton Key
DYEAR=2002
DGENRE=
TTITLE0=(Just Ask) Jesse James
TTITLE1=Backstroke
TTITLE2=I Can Still Hear You Crying
TTITLE3=Stay Away From My Home
TTITLE4=Skeleton Key
TTITLE5=Walkin'
TTITLE6=Reap What You Sow
TTITLE7=The Best One
TTITLE8=Things Are About To Change
TTITLE9=It Don't Make Sense (That You Can't Make Peace)
TTITLE10=Later To That
TTITLE11=Signed, Sealed, Delivered
TTITLE12=Personal Jesus
TTITLE13=Belgian Moon
TTITLE14=Fool For You
EXTD=
EXTT0=
EXTT1=
EXTT2=
EXTT3=
EXTT4=
EXTT5=
EXTT6=
EXTT7=
EXTT8=
EXTT9=
EXTT10=
EXTT11=
EXTT12=
EXTT13=
EXTT14=
PLAYORDER=
